<svg width="50" height="50" viewBox="0 0 50 50" fill="none" xmlns="http://www.w3.org/2000/svg">
<path d="M31.25 12.5H28.125C28.125 10.428 27.3019 8.44086 25.8368 6.97573C24.3716 5.5106 22.3845 4.6875 20.3125 4.6875C18.2405 4.6875 16.2534 5.5106 14.7882 6.97573C13.3231 8.44086 12.5 10.428 12.5 12.5H9.375C9.375 9.59919 10.5273 6.8172 12.5785 4.76602C14.6297 2.71484 17.4117 1.5625 20.3125 1.5625C23.2133 1.5625 25.9953 2.71484 28.0465 4.76602C30.0977 6.8172 31.25 9.59919 31.25 12.5Z" fill="#365AB7"/>
<path d="M39.0625 23.4375C38.2552 23.4404 37.463 23.656 36.7656 24.0625C36.3443 23.3944 35.7611 22.8435 35.07 22.4611C34.3789 22.0786 33.6023 21.877 32.8125 21.875C32.0052 21.8779 31.213 22.0935 30.5156 22.5C29.9471 21.6055 29.0923 20.9301 28.0906 20.5839C27.0889 20.2377 25.9994 20.2412 25 20.5938V12.5C25 11.2568 24.5061 10.0645 23.627 9.18544C22.748 8.30636 21.5557 7.8125 20.3125 7.8125C19.0693 7.8125 17.877 8.30636 16.9979 9.18544C16.1188 10.0645 15.625 11.2568 15.625 12.5V29.8438L12.1406 27.4688C11.3418 26.8739 10.3709 26.5557 9.37497 26.5625C8.44525 26.5602 7.53585 26.8344 6.76239 27.3503C5.98892 27.8662 5.38634 28.6005 5.03125 29.4597C4.67617 30.3189 4.58462 31.2644 4.76824 32.1758C4.95186 33.0872 5.40237 33.9234 6.06247 34.5781L18.5625 45.9844C20.3322 47.5683 22.625 48.442 25 48.4375H32.8125C35.7133 48.4375 38.4953 47.2852 40.5465 45.234C42.5976 43.1828 43.75 40.4008 43.75 37.5V28.125C43.75 26.8818 43.2561 25.6895 42.377 24.8104C41.498 23.9314 40.3057 23.4375 39.0625 23.4375ZM40.625 37.5C40.625 39.572 39.8019 41.5591 38.3368 43.0243C36.8716 44.4894 34.8845 45.3125 32.8125 45.3125H25C23.4206 45.3316 21.8881 44.7763 20.6875 43.75L8.2656 32.3438C7.97694 32.0527 7.8142 31.6599 7.81247 31.25C7.81247 30.9598 7.89328 30.6754 8.04583 30.4285C8.19839 30.1817 8.41666 29.9822 8.6762 29.8525C8.93574 29.7227 9.22629 29.6678 9.5153 29.6938C9.8043 29.7199 10.0803 29.8259 10.3125 30L18.75 35.7812V12.5C18.75 12.0856 18.9146 11.6882 19.2076 11.3951C19.5006 11.1021 19.8981 10.9375 20.3125 10.9375C20.7269 10.9375 21.1243 11.1021 21.4173 11.3951C21.7104 11.6882 21.875 12.0856 21.875 12.5V29.6875H25V25C25 24.5856 25.1646 24.1882 25.4576 23.8951C25.7506 23.6021 26.1481 23.4375 26.5625 23.4375C26.9769 23.4375 27.3743 23.6021 27.6673 23.8951C27.9604 24.1882 28.125 24.5856 28.125 25V29.6875H31.25V26.5625C31.25 26.1481 31.4146 25.7507 31.7076 25.4576C32.0006 25.1646 32.3981 25 32.8125 25C33.2269 25 33.6243 25.1646 33.9173 25.4576C34.2104 25.7507 34.375 26.1481 34.375 26.5625V29.6875H37.5V28.125C37.5 27.7106 37.6646 27.3132 37.9576 27.0201C38.2506 26.7271 38.6481 26.5625 39.0625 26.5625C39.4769 26.5625 39.8743 26.7271 40.1673 27.0201C40.4604 27.3132 40.625 27.7106 40.625 28.125V37.5Z" fill="#365AB7"/>
</svg>
