<svg width="169" height="169" viewBox="0 0 169 169" fill="none" xmlns="http://www.w3.org/2000/svg">
<g filter="url(#filter0_d_1939_38893)">
<rect x="42" y="16" width="85" height="85" rx="15" fill="white"/>
<path d="M107.299 47.1V79.875C107.299 83.8049 104.104 87 100.174 87H68.8242C64.8943 87 61.6992 83.8049 61.6992 79.875V37.125C61.6992 33.1951 64.8943 30 68.8242 30H90.2103L93.9287 33.7184L107.299 47.1Z" fill="#1FBAFE"/>
<path d="M107.299 47.1H97.3242C93.3943 47.1 90.1992 43.9049 90.1992 39.975V30H90.2103L107.299 47.1Z" fill="#07342D"/>
<g opacity="0.06">
<path d="M97.3242 47.1001C93.3943 47.1001 90.1992 43.905 90.1992 39.9751V42.8251C90.1992 46.755 93.3943 49.9501 97.3242 49.9501H107.299V47.1001H97.3242Z" fill="#17292D"/>
</g>
<path d="M78.4668 62.3075C79.0457 62.018 79.2461 62.1962 79.2461 62.8753V64.0442C79.2461 64.8346 79.1125 64.9905 78.5781 65.2688L75.1381 66.9499V67.0389L78.5559 68.7089C79.1348 68.9872 79.2461 69.1319 79.2461 69.9335V71.2137C79.2461 71.8928 79.0457 72.0821 78.4668 71.7815L72.2881 68.4417C71.8205 68.1633 71.6758 68.0186 71.6758 67.5176V66.5936C71.6758 66.0926 71.8205 65.9257 72.2881 65.6473L78.4668 62.3075Z" fill="#07342D"/>
<path d="M83.5757 73.5405C83.4087 74.0415 83.1861 74.1639 82.6628 74.1639H81.171C80.6701 74.1639 80.5699 73.9747 80.7257 73.5405L85.613 60.5485C85.78 60.0475 86.0027 59.925 86.5259 59.925H88.0177C88.5187 59.925 88.63 60.1143 88.463 60.5485L83.5757 73.5405Z" fill="#07342D"/>
<path d="M89.7324 62.8641C89.7324 62.185 89.9885 61.9957 90.534 62.2963L96.7127 65.6361C97.1803 65.9145 97.325 66.0926 97.325 66.5602V67.4842C97.325 67.9406 97.1803 68.1522 96.7127 68.4305L90.534 71.7481C89.9885 72.0375 89.7324 71.8594 89.7324 71.1914V70.0002C89.7324 69.2432 89.8771 69.0539 90.4227 68.7756L93.8627 67.0945V67.0055L90.4449 65.3356C89.866 65.0572 89.7324 64.9125 89.7324 64.1109V62.8641Z" fill="#07342D"/>
</g>
<defs>
<filter id="filter0_d_1939_38893" x="0" y="0" width="169" height="169" filterUnits="userSpaceOnUse" color-interpolation-filters="sRGB">
<feFlood flood-opacity="0" result="BackgroundImageFix"/>
<feColorMatrix in="SourceAlpha" type="matrix" values="0 0 0 0 0 0 0 0 0 0 0 0 0 0 0 0 0 0 127 0" result="hardAlpha"/>
<feOffset dy="26"/>
<feGaussianBlur stdDeviation="21"/>
<feComposite in2="hardAlpha" operator="out"/>
<feColorMatrix type="matrix" values="0 0 0 0 0.587813 0 0 0 0 0.704925 0 0 0 0 0.870833 0 0 0 1 0"/>
<feBlend mode="normal" in2="BackgroundImageFix" result="effect1_dropShadow_1939_38893"/>
<feBlend mode="normal" in="SourceGraphic" in2="effect1_dropShadow_1939_38893" result="shape"/>
</filter>
</defs>
</svg>
