<svg width="169" height="169" viewBox="0 0 169 169" fill="none" xmlns="http://www.w3.org/2000/svg">
<g filter="url(#filter0_d_1939_38909)">
<rect x="42" y="16" width="85" height="85" rx="15" fill="white"/>
<g clip-path="url(#clip0_1939_38909)">
<path d="M56 58.5C56 42.7599 68.7599 30 84.5 30C100.24 30 113 42.7599 113 58.5C113 74.2401 100.24 87 84.5 87C68.7599 87 56 74.2401 56 58.5Z" fill="#333333"/>
<path d="M78.7996 75.5999C81.9477 75.5999 84.4996 73.048 84.4996 69.9V64.2H78.7996C75.6515 64.2 73.0996 66.752 73.0996 69.9C73.0996 73.048 75.6515 75.5999 78.7996 75.5999Z" fill="#0ACF83"/>
<path d="M73.0996 58.5C73.0996 55.352 75.6515 52.8 78.7996 52.8H84.4996V64.2H78.7996C75.6515 64.2 73.0996 61.648 73.0996 58.5Z" fill="#A259FF"/>
<path d="M73.0996 47.0999C73.0996 43.9519 75.6515 41.3999 78.7996 41.3999H84.4996V52.7999H78.7996C75.6515 52.7999 73.0996 50.2479 73.0996 47.0999Z" fill="#F24E1E"/>
<path d="M84.5 41.3999H90.2C93.3481 41.3999 95.9 43.9519 95.9 47.0999C95.9 50.2479 93.3481 52.7999 90.2 52.7999H84.5V41.3999Z" fill="#FF7262"/>
<path d="M95.9 58.5C95.9 61.648 93.3481 64.2 90.2 64.2C87.0519 64.2 84.5 61.648 84.5 58.5C84.5 55.352 87.0519 52.8 90.2 52.8C93.3481 52.8 95.9 55.352 95.9 58.5Z" fill="#1ABCFE"/>
</g>
</g>
<defs>
<filter id="filter0_d_1939_38909" x="0" y="0" width="169" height="169" filterUnits="userSpaceOnUse" color-interpolation-filters="sRGB">
<feFlood flood-opacity="0" result="BackgroundImageFix"/>
<feColorMatrix in="SourceAlpha" type="matrix" values="0 0 0 0 0 0 0 0 0 0 0 0 0 0 0 0 0 0 127 0" result="hardAlpha"/>
<feOffset dy="26"/>
<feGaussianBlur stdDeviation="21"/>
<feComposite in2="hardAlpha" operator="out"/>
<feColorMatrix type="matrix" values="0 0 0 0 0.587813 0 0 0 0 0.704925 0 0 0 0 0.870833 0 0 0 1 0"/>
<feBlend mode="normal" in2="BackgroundImageFix" result="effect1_dropShadow_1939_38909"/>
<feBlend mode="normal" in="SourceGraphic" in2="effect1_dropShadow_1939_38909" result="shape"/>
</filter>
<clipPath id="clip0_1939_38909">
<rect width="57" height="57" fill="white" transform="translate(56 30)"/>
</clipPath>
</defs>
</svg>
