<svg width="169" height="169" viewBox="0 0 169 169" fill="none" xmlns="http://www.w3.org/2000/svg">
<g filter="url(#filter0_d_1939_38902)">
<rect x="42" y="16" width="85" height="85" rx="15" fill="white"/>
<g clip-path="url(#clip0_1939_38902)">
<path d="M104.582 87H64.3861C59.7517 87 56 83.2463 56 78.6093V38.3907C56 33.7537 59.7517 30 64.3861 30H104.614C109.248 30 113 33.7537 113 38.3907V78.6408C112.968 83.2463 109.217 87 104.582 87Z" fill="#001D26"/>
<path d="M71.9925 61.7647V70.534H69.0273V48.1062H77.2919C79.7523 48.1062 81.6765 48.7371 83.0644 49.9988C84.4524 51.2606 85.1463 52.9009 85.1463 54.9828C85.1463 57.1593 84.4524 58.8312 83.096 59.9983C81.7396 61.1654 79.7838 61.7647 77.2603 61.7647H71.9925ZM71.9925 59.3359H77.2919C78.8691 59.3359 80.0993 58.9573 80.9194 58.2318C81.7396 57.5063 82.1812 56.4023 82.1812 55.0143C82.1812 53.6895 81.7711 52.617 80.9194 51.7968C80.0677 51.0082 78.9322 50.5666 77.4496 50.5351H71.9925V59.3359Z" fill="#00C8FF"/>
<path d="M98.1748 66.1177C98.1748 65.3607 97.891 64.7614 97.2916 64.3197C96.7238 63.8781 95.7144 63.5311 94.2634 63.2157C92.8124 62.9003 91.6768 62.5533 90.8251 62.1117C89.9734 61.67 89.3425 61.1653 88.9325 60.566C88.5224 59.9667 88.3331 59.2727 88.3331 58.4526C88.3331 57.0962 88.9009 55.929 90.068 54.9827C91.2352 54.0364 92.6862 53.5632 94.4842 53.5632C96.3768 53.5632 97.891 54.0364 99.0896 55.0143C100.257 55.9921 100.856 57.2223 100.856 58.768H97.9856C97.9856 57.9794 97.6701 57.317 97.0077 56.7492C96.3453 56.1814 95.5252 55.8975 94.5157 55.8975C93.4748 55.8975 92.6546 56.1183 92.0869 56.5599C91.5191 57.0015 91.2036 57.6009 91.2036 58.3264C91.2036 59.0203 91.4875 59.525 92.0238 59.872C92.56 60.219 93.5379 60.566 94.9889 60.8814C96.4084 61.1969 97.5755 61.5754 98.4587 62.017C99.342 62.4586 100.004 62.9949 100.414 63.6258C100.856 64.2566 101.045 65.0137 101.045 65.8969C101.045 67.3795 100.446 68.5782 99.2473 69.4929C98.0487 70.4077 96.503 70.8493 94.6104 70.8493C93.2855 70.8493 92.0869 70.6285 91.0774 70.1554C90.068 69.6822 89.2479 69.0198 88.6801 68.1681C88.1123 67.3164 87.7969 66.4016 87.7969 65.4238H90.6358C90.6989 66.3701 91.0774 67.1272 91.7714 67.6949C92.4969 68.2627 93.4117 68.5466 94.6104 68.5466C95.6829 68.5466 96.5661 68.3258 97.197 67.8842C97.8594 67.4426 98.1748 66.8433 98.1748 66.1177Z" fill="#00C8FF"/>
</g>
</g>
<defs>
<filter id="filter0_d_1939_38902" x="0" y="0" width="169" height="169" filterUnits="userSpaceOnUse" color-interpolation-filters="sRGB">
<feFlood flood-opacity="0" result="BackgroundImageFix"/>
<feColorMatrix in="SourceAlpha" type="matrix" values="0 0 0 0 0 0 0 0 0 0 0 0 0 0 0 0 0 0 127 0" result="hardAlpha"/>
<feOffset dy="26"/>
<feGaussianBlur stdDeviation="21"/>
<feComposite in2="hardAlpha" operator="out"/>
<feColorMatrix type="matrix" values="0 0 0 0 0.587813 0 0 0 0 0.704925 0 0 0 0 0.870833 0 0 0 1 0"/>
<feBlend mode="normal" in2="BackgroundImageFix" result="effect1_dropShadow_1939_38902"/>
<feBlend mode="normal" in="SourceGraphic" in2="effect1_dropShadow_1939_38902" result="shape"/>
</filter>
<clipPath id="clip0_1939_38902">
<rect width="57" height="57" fill="white" transform="translate(56 30)"/>
</clipPath>
</defs>
</svg>
