<svg width="50" height="40" viewBox="0 0 50 40" fill="none" xmlns="http://www.w3.org/2000/svg">
<path d="M39.5391 9.92969C38.1352 8.35391 34.7375 5.11328 29.9531 4.375C28.1953 4.11297 26.407 4.65672 24.9992 5.79766C23.5938 4.72422 21.8047 4.17344 20.0391 4.44219C13.8125 5.40391 9.89844 10.6406 9.73438 10.8672C9.12156 11.7023 9.30227 12.8766 10.1348 13.4898C10.4558 13.7266 10.8444 13.8542 11.2434 13.8537C11.822 13.8537 12.391 13.59 12.7574 13.0895C12.7891 13.0455 15.8973 8.87773 20.609 8.14961C21.1916 8.07453 21.7793 8.20195 22.2934 8.49984L17.75 13.1406C16.7812 14.1016 16.1797 15.3203 16.1797 16.7578C16.1797 18.125 16.7119 19.4094 17.6766 20.3742C18.7109 21.3438 19.9922 21.8047 21.3594 21.8047C22.7266 21.8047 24.0109 21.2724 24.9773 20.3055L25.8641 19.4187L35.5672 27.3016C35.7478 27.448 35.7747 27.7118 35.6063 27.9242L33.443 30.7172C33.2989 30.893 33.0328 30.9198 32.8839 30.8002L31.148 29.3401L29.1019 31.508C28.9188 31.7327 28.6844 31.7864 28.5623 31.7986C28.433 31.8108 28.2059 31.8084 28.0302 31.6643L25.4981 29.5034L24.2734 30.6484L24.0537 30.878C23.5972 31.4371 22.953 31.7889 22.235 31.8623C21.4952 31.9259 20.8092 31.7256 20.3209 31.3325L13.3047 24.9844H7.5V10.0234H0V29.9922L5 29.9953C5.91719 29.9953 6.68516 29.4714 7.12031 28.7344H11.8578L17.8781 34.1766C19.0391 35.125 20.4609 35.625 21.9375 35.625C22.1621 35.625 22.3891 35.6152 22.6138 35.5908C23.6778 35.4809 24.677 35.1171 25.5411 34.5361L25.6119 34.5996C26.5517 35.3712 27.7431 35.7254 28.947 35.598C29.9775 35.4906 30.922 35.0487 31.5963 34.3988C33.2439 35.0385 35.197 34.582 36.3814 33.1121L38.5447 30.3191C39.9877 28.5363 39.7142 25.9066 37.9319 24.459L28.5334 16.8215L29.1882 16.1666C29.9206 15.4341 29.9206 14.2471 29.1882 13.5151C28.4558 12.7826 27.2695 12.7826 26.5366 13.5151L22.3281 17.7187C21.8125 18.2422 20.9141 18.2422 20.3984 17.7187C20.1397 17.4623 19.998 17.1205 19.998 16.757C19.998 16.3908 20.1396 16.0489 20.4106 15.7781L27.1223 8.93125C27.7327 8.31836 28.57 8.01328 29.3833 8.14766C34.0513 8.86797 37.2114 13.0484 37.2427 13.0922C37.4839 13.4168 37.8102 13.6348 38.1677 13.7466H42.5V27.4262C42.5 28.8067 43.6195 29.9302 44.9297 29.9302L50 30V10.0078L39.5391 9.92969ZM3.75 27.5C3.06641 27.5 2.5 26.934 2.5 26.2508C2.5 25.5573 3.06641 25.0016 3.75 25.0016C4.43359 25.0016 5 25.5625 5 26.2578C5 26.9375 4.43359 27.5 3.75 27.5ZM46.25 27.5C45.5664 27.5 45 26.934 45 26.2508C45 25.5573 45.5664 25.0016 46.25 25.0016C46.9336 25.0016 47.5 25.5576 47.5 26.2508C47.5 26.9375 46.9375 27.5 46.25 27.5Z" fill="#365AB7"/>
</svg>
