<svg width="50" height="50" viewBox="0 0 50 50" fill="none" xmlns="http://www.w3.org/2000/svg">
<path d="M39.5833 21.875L44.7917 31.25L39.5833 32.2917V38.5417H36.4583L30.2083 37.5L29.1667 44.7917H13.5417L11.4583 33.9781C8.25 30.9406 6.25 26.6417 6.25 21.875C6.25 12.6698 13.7115 5.20834 22.9167 5.20834C32.1219 5.20834 39.5833 12.6698 39.5833 21.875Z" stroke="#365AB7" stroke-width="4" stroke-linecap="round" stroke-linejoin="round"/>
<path d="M17.7083 19.7917C17.7083 18.7616 18.0138 17.7546 18.5861 16.8981C19.1584 16.0416 19.9718 15.374 20.9235 14.9798C21.8752 14.5856 22.9224 14.4825 23.9327 14.6834C24.9431 14.8844 25.8711 15.3804 26.5995 16.1088C27.3279 16.8372 27.8239 17.7653 28.0249 18.7756C28.2259 19.7859 28.1227 20.8331 27.7285 21.7848C27.3343 22.7365 26.6667 23.55 25.8102 24.1223C24.9537 24.6946 23.9468 25 22.9166 25V28.125M22.9166 34.375V35.4167" stroke="#365AB7" stroke-width="4" stroke-linecap="round" stroke-linejoin="round"/>
</svg>
