<svg width="163" height="170" viewBox="0 0 163 170" fill="none" xmlns="http://www.w3.org/2000/svg">
<path d="M84.9987 162.916C128.031 162.916 162.915 128.032 162.915 84.9997C162.915 41.9675 128.031 7.08301 84.9987 7.08301C41.9665 7.08301 7.08203 41.9675 7.08203 84.9997C7.08203 128.032 41.9665 162.916 84.9987 162.916Z" fill="url(#paint0_linear_1439_38009)"/>
<path d="M84.9987 141.666C116.295 141.666 141.665 116.296 141.665 84.9997C141.665 53.7035 116.295 28.333 84.9987 28.333C53.7026 28.333 28.332 53.7035 28.332 84.9997C28.332 116.296 53.7026 141.666 84.9987 141.666Z" fill="url(#paint1_linear_1439_38009)"/>
<path d="M85.0013 123.959C106.517 123.959 123.96 106.516 123.96 85.0003C123.96 63.4842 106.517 46.042 85.0013 46.042C63.4852 46.042 46.043 63.4842 46.043 85.0003C46.043 106.516 63.4852 123.959 85.0013 123.959Z" fill="url(#paint2_linear_1439_38009)"/>
<path d="M85.0013 102.709C94.7813 102.709 102.71 94.7804 102.71 85.0003C102.71 75.2203 94.7813 67.292 85.0013 67.292C75.2213 67.292 67.293 75.2203 67.293 85.0003C67.293 94.7804 75.2213 102.709 85.0013 102.709Z" fill="url(#paint3_linear_1439_38009)"/>
<path d="M85.0009 88.5415C84.3005 88.5414 83.6159 88.3336 83.0336 87.9444C82.4513 87.5552 81.9975 87.0021 81.7295 86.3551C81.4615 85.708 81.3914 84.996 81.528 84.3091C81.6646 83.6222 82.0018 82.9912 82.4969 82.4959L135.622 29.3709C136.29 28.7258 137.185 28.3688 138.113 28.3768C139.042 28.3849 139.93 28.7574 140.587 29.414C141.243 30.0707 141.616 30.959 141.624 31.8876C141.632 32.8162 141.275 33.7108 140.63 34.3788L87.5048 87.5038C86.8408 88.1681 85.9401 88.5413 85.0009 88.5415Z" fill="url(#paint4_linear_1439_38009)"/>
<path d="M161.195 24.2036C160.793 23.2322 160.112 22.4021 159.237 21.8183C158.363 21.2344 157.335 20.9232 156.283 20.9241H149.076V13.7168C149.076 12.6657 148.765 11.6381 148.181 10.764C147.598 9.88996 146.768 9.20867 145.797 8.80638C144.826 8.40409 143.757 8.29888 142.726 8.50407C141.695 8.70925 140.749 9.21561 140.006 9.95906L128.524 21.4447C128.029 21.9366 127.637 22.5217 127.37 23.1661C127.103 23.8105 126.967 24.5014 126.969 25.1988V39.493C126.969 40.4323 127.342 41.3332 128.006 41.9974C128.67 42.6615 129.571 43.0347 130.51 43.0347H144.801C145.499 43.0366 146.19 42.8998 146.835 42.6323C147.479 42.3648 148.064 41.9719 148.555 41.4763L160.044 29.9907C160.787 29.2479 161.292 28.3017 161.497 27.2717C161.702 26.2416 161.597 25.174 161.195 24.2036V24.2036Z" fill="url(#paint5_linear_1439_38009)"/>
<path d="M130.511 43.0345H144.802C145.5 43.0364 146.191 42.8996 146.836 42.6321C147.48 42.3646 148.065 41.9716 148.556 41.4761L160.045 29.9905C160.788 29.2471 161.293 28.3003 161.498 27.2697C161.702 26.2392 161.596 25.1711 161.194 24.2007C160.791 23.2302 160.11 22.401 159.236 21.8177C158.362 21.2344 157.335 20.9234 156.284 20.9238H149.077L128.004 41.9967C128.333 42.3261 128.724 42.5872 129.154 42.7653C129.585 42.9434 130.046 43.0348 130.511 43.0345V43.0345Z" fill="url(#paint6_linear_1439_38009)"/>
<defs>
<linearGradient id="paint0_linear_1439_38009" x1="29.9045" y1="29.9055" x2="140.093" y2="140.094" gradientUnits="userSpaceOnUse">
<stop stop-color="#C655C4"/>
<stop offset="1" stop-color="#FF6231"/>
</linearGradient>
<linearGradient id="paint1_linear_1439_38009" x1="44.9283" y1="44.9293" x2="125.069" y2="125.07" gradientUnits="userSpaceOnUse">
<stop stop-color="#EDF1F2"/>
<stop offset="1" stop-color="#C6CBCC"/>
</linearGradient>
<linearGradient id="paint2_linear_1439_38009" x1="57.4542" y1="57.4532" x2="112.548" y2="112.547" gradientUnits="userSpaceOnUse">
<stop stop-color="#C655C4"/>
<stop offset="1" stop-color="#FF6231"/>
</linearGradient>
<linearGradient id="paint3_linear_1439_38009" x1="72.478" y1="72.477" x2="97.5246" y2="97.5237" gradientUnits="userSpaceOnUse">
<stop stop-color="#EDF1F2"/>
<stop offset="1" stop-color="#C6CBCC"/>
</linearGradient>
<linearGradient id="paint4_linear_1439_38009" x1="108.921" y1="55.7953" x2="116.15" y2="63.0238" gradientUnits="userSpaceOnUse">
<stop stop-color="#3E4154"/>
<stop offset="1" stop-color="#1B2129"/>
</linearGradient>
<linearGradient id="paint5_linear_1439_38009" x1="131.066" y1="19.2807" x2="140.356" y2="28.5705" gradientUnits="userSpaceOnUse">
<stop stop-color="#FED200"/>
<stop offset="1" stop-color="#F59815"/>
</linearGradient>
<linearGradient id="paint6_linear_1439_38009" x1="138.041" y1="26.254" x2="151.085" y2="39.2945" gradientUnits="userSpaceOnUse">
<stop stop-color="#FED200"/>
<stop offset="1" stop-color="#F59815"/>
</linearGradient>
</defs>
</svg>
